<svg width="123" height="123" viewBox="0 0 123 123" fill="none" xmlns="http://www.w3.org/2000/svg">
<path d="M88.66 3.37H110.18L97.13 62C94.62 73.15 92.9 79.97 91.95 82.52C95.32 98.03 100.25 105.77 106.68 105.77C114.28 105.77 118.22 100.5 118.48 89.96H122.89C122.63 99.77 120.86 107.72 117.53 113.81C114.2 119.86 109.84 122.88 104.44 122.88C99.99 122.88 96.66 121.07 94.46 117.44C92.3 113.81 89.92 106.38 87.42 95.19C78.65 113.64 64.3 122.89 44.43 122.89C30.82 122.89 20.06 117.58 12.02 106.99C4.02 96.39 0 81.23 0 61.48C0 42.08 4.36 27 13.13 16.2C21.91 5.4 32.45 0 44.76 0C53.44 0 60.57 3.07 66.15 9.25C71.72 15.39 76.65 25.45 80.93 39.36L88.66 3.37ZM77.51 53.01C73.58 39.49 69.13 28.9 64.25 21.25C59.37 13.65 53.53 9.84 46.71 9.84C31.29 9.84 23.59 27.9 23.59 63.98C23.59 98.24 30.98 115.35 45.71 115.35C58.5 115.35 67.96 100.23 74.1 69.98L77.51 53.01Z" fill="white"/>
</svg>
